<?xml version="1.0" encoding="UTF-8" standalone="no"?>
<svg
   xmlns:dc="http://purl.org/dc/elements/1.1/"
   xmlns:cc="http://creativecommons.org/ns#"
   xmlns:rdf="http://www.w3.org/1999/02/22-rdf-syntax-ns#"
   xmlns:svg="http://www.w3.org/2000/svg"
   xmlns="http://www.w3.org/2000/svg"
   xmlns:sodipodi="http://sodipodi.sourceforge.net/DTD/sodipodi-0.dtd"
   xmlns:inkscape="http://www.inkscape.org/namespaces/inkscape"
   version="1.0"
   width="369.000000pt"
   height="192.000000pt"
   viewBox="0 0 369.000000 192.000000"
   preserveAspectRatio="xMidYMid meet"
   id="svg40"
   sodipodi:docname="logo2.svg"
   inkscape:version="1.0.1 (3bc2e813f5, 2020-09-07)">
  <metadata
     id="metadata46">
    <rdf:RDF>
      <cc:Work
         rdf:about="">
        <dc:format>image/svg+xml</dc:format>
        <dc:type
           rdf:resource="http://purl.org/dc/dcmitype/StillImage" />
        <dc:title></dc:title>
      </cc:Work>
    </rdf:RDF>
  </metadata>
  <defs
     id="defs44" />
  <sodipodi:namedview
     pagecolor="#ffffff"
     bordercolor="#666666"
     borderopacity="1"
     objecttolerance="10"
     gridtolerance="10"
     guidetolerance="10"
     inkscape:pageopacity="0"
     inkscape:pageshadow="2"
     inkscape:window-width="1920"
     inkscape:window-height="1017"
     id="namedview42"
     showgrid="false"
     inkscape:zoom="1.8008228"
     inkscape:cx="248.40847"
     inkscape:cy="25.813034"
     inkscape:window-x="-8"
     inkscape:window-y="-8"
     inkscape:window-maximized="1"
     inkscape:current-layer="svg40" />
  <g
     transform="translate(0.000000,192.000000) scale(0.100000,-0.100000)"
     fill="#000000"
     stroke="none"
     id="g38">
    <path
       d="M331 1819 c-18 -6 -57 -34 -87 -63 -59 -60 -69 -90 -62 -186 5 -70 23 -99 91 -150 l47 -35 -112 -5 -113 -5 0 -130 0 -130 218 -3 c126 -1 234 2 256 8 47 12 129 83 147 127 20 46 17 130 -5 180 -13 27 -41 58 -81 90 l-62 48 123 5 124 5 5 65 5 65 74 -285 c41 -157 79 -291 84 -298 7 -9 49 -12 170 -10 l160 3 17 60 16 59 20 -59 19 -60 165 0 164 0 88 330 c48 182 87 341 85 355 l-2 25 -150 0 -150 0 -19 -59 -20 -60 -15 60 -16 59 -165 0 -165 0 -19 -60 -20 -59 -16 59 -17 60 -374 2 c-219 1 -388 -3 -408 -8z m459 -119 l0 -109 -142 -3 -143 -3 81 -62 c91 -69 124 -120 124 -191 0 -59 -21 -102 -69 -144 -61 -52 -94 -58 -325 -58 l-206 0 0 115 0 114 138 3 137 3 -76 56 c-86 64 -109 102 -109 178 0 63 27 120 75 158 59 47 85 51 308 52 l207 1 0 -110z m311 93 c0 -10 11 -54 23 -98 l23 -80 16 55 c8 30 21 74 27 98 l11 42 149 0 c136 0 150 -2 151 -17 0 -10 11 -54 23 -98 l23 -80 16 55 c8 30 21 74 27 98 l11 42 136 0 c135 0 135 0 130 -22 -3 -13 -43 -166 -89 -340 l-83 -318 -147 0 -147 0 -11 43 c-6 23 -18 67 -27 97 l-16 55 -23 -80 c-12 -44 -23 -88 -23 -97 -1 -16 -15 -18 -150 -18 l-150 0 -15 53 c-8 28 -47 175 -86 326 -40 151 -74 281 -77 288 -4 10 23 13 136 13 127 0 141 -2 142 -17z"
       id="path2" />
    <path
       d="M335 1761 c-81 -37 -125 -115 -111 -199 9 -57 25 -75 152 -168 24 -18 27 -25 18 -40 -10 -17 -27 -19 -133 -22 l-121 -3 0 -89 0 -90 198 0 c223 0 251 7 309 73 81 93 46 197 -104 309 -29 21 -53 44 -53 51 0 31 25 37 152 37 l128 0 0 80 0 80 -197 0 c-170 0 -204 -3 -238 -19z m415 -61 l0 -60 -122 0 c-99 0 -125 -3 -140 -17 -35 -31 -23 -58 51 -117 80 -64 105 -94 121 -142 21 -63 -21 -142 -94 -175 -35 -16 -68 -19 -223 -19 l-183 0 0 70 0 70 113 0 c100 0 116 2 131 19 30 33 16 61 -54 111 -110 77 -137 165 -75 246 49 65 85 74 293 74 l182 0 0 -60z"
       id="path4" />
    <path
       d="M850 1778 c1 -2 38 -142 84 -313 l83 -310 130 -3 130 -3 34 130 c18 72 35 128 37 126 3 -2 19 -59 37 -127 l32 -123 130 -3 130 -3 81 308 c45 169 82 312 82 316 0 4 -50 6 -112 5 l-111 -3 -33 -124 c-18 -68 -34 -125 -36 -127 -2 -1 -19 56 -37 127 l-34 130 -130 -3 -130 -3 -32 -118 c-18 -64 -34 -120 -37 -122 -3 -3 -20 51 -38 120 l-32 125 -114 0 c-63 0 -114 -1 -114 -2z m218 -50 c5 -18 20 -75 33 -127 37 -145 55 -139 102 35 l32 119 112 3 112 3 10 -38 c5 -21 20 -78 33 -127 36 -140 55 -132 101 40 l32 119 88 3 c58 2 87 -1 87 -8 0 -6 -30 -122 -66 -258 -36 -136 -70 -264 -75 -285 l-10 -38 -112 3 -111 3 -31 117 c-17 65 -36 123 -42 129 -20 20 -40 2 -52 -48 -7 -26 -21 -83 -33 -126 l-20 -78 -112 3 -111 3 -72 270 c-40 149 -75 280 -78 293 -5 22 -4 22 84 22 l90 0 9 -32z"
       id="path6" />
    <path
       d="M1933 1818 c-19 -25 -186 -689 -176 -699 6 -6 70 -8 159 -7 l149 3 9 38 10 37 72 0 72 0 9 -37 9 -38 299 0 300 0 3 97 3 96 137 4 c129 3 140 5 184 31 26 15 63 48 83 73 l35 46 2 -173 3 -174 150 0 150 0 0 355 0 355 -150 0 -150 0 -3 -73 -3 -74 -35 46 c-19 25 -56 58 -82 73 l-47 28 -290 0 -290 0 -5 -292 -5 -292 -74 282 c-41 155 -78 288 -84 295 -7 9 -64 12 -222 12 -158 0 -215 -3 -222 -12z m518 -348 c49 -184 89 -336 89 -338 0 -1 -62 -1 -137 0 l-138 3 -9 38 -10 38 -90 -3 -91 -3 -9 -37 -10 -38 -139 0 c-111 0 -138 3 -134 13 3 7 37 137 77 288 39 151 78 298 86 327 l16 52 205 -2 206 -3 88 -335z m672 324 c93 -31 160 -126 160 -224 0 -67 -23 -121 -75 -171 -57 -55 -109 -69 -255 -69 l-123 0 0 -100 0 -100 -135 0 -135 0 0 340 0 340 258 0 c209 0 267 -3 305 -16z m457 -324 l0 -340 -135 0 -135 0 0 340 0 340 135 0 135 0 0 -340z"
       id="path8" />
    <path
       d="M1965 1768 c-2 -7 -38 -141 -80 -298 -41 -157 -78 -293 -81 -302 -5 -16 5 -18 109 -18 l115 0 11 45 11 46 108 -3 107 -3 9 -42 9 -43 114 0 113 0 -6 28 c-4 15 -42 155 -83 312 l-76 285 -188 3 c-145 2 -188 0 -192 -10z m434 -285 c41 -153 76 -286 78 -295 5 -16 -4 -18 -84 -18 l-90 0 -9 43 -9 42 -119 3 c-73 2 -123 -1 -131 -8 -7 -6 -16 -26 -19 -45 l-7 -35 -90 0 c-81 0 -90 2 -85 18 3 9 37 139 77 287 39 149 73 273 76 278 2 4 79 7 171 7 l168 0 73 -277z"
       id="path10" />
    <path
       d="M2131 1648 c-21 -57 -64 -256 -58 -271 5 -14 21 -17 87 -17 55 0 82 4 85 13 3 6 -12 75 -32 152 -29 107 -42 141 -55 143 -11 2 -21 -5 -27 -20z m58 -125 c17 -67 31 -127 31 -132 0 -12 -130 -16 -130 -3 0 10 64 261 67 259 1 -1 15 -57 32 -124z"
       id="path12" />
    <path
       d="M2141 1503 c-6 -22 -14 -53 -17 -71 -6 -32 -6 -32 34 -32 l41 0 -19 66 c-11 37 -21 69 -24 71 -3 3 -9 -13 -15 -34z m22 -63 c3 -11 1 -20 -4 -20 -5 0 -9 9 -9 20 0 11 2 20 4 20 2 0 6 -9 9 -20z"
       id="path14" />
    <path
       d="M2590 1465 l0 -315 110 0 110 0 0 105 0 105 140 0 c152 0 181 7 238 55 77 65 95 174 43 258 -17 25 -49 59 -72 74 l-42 28 -264 3 -263 3 0 -316z m539 269 c138 -69 147 -238 16 -319 -47 -29 -52 -30 -204 -35 l-156 -5 -3 -102 -3 -103 -84 0 -85 0 0 295 0 295 233 0 c231 0 233 0 286 -26z"
       id="path16" />
    <path
       d="M2784 1647 c-3 -8 -4 -45 -2 -83 l3 -69 112 -3 c105 -2 113 -1 139 21 39 34 39 90 0 123 -25 22 -36 24 -137 24 -83 0 -111 -3 -115 -13z m234 -23 c15 -10 22 -25 22 -49 0 -52 -26 -65 -137 -65 l-93 0 0 65 0 65 93 0 c68 0 99 -4 115 -16z"
       id="path18" />
    <path
       d="M2830 1575 l0 -45 83 0 c87 0 107 8 107 45 0 37 -20 45 -107 45 l-83 0 0 -45z m165 0 c0 -18 -8 -20 -72 -23 -73 -3 -73 -3 -73 23 0 26 0 26 73 23 64 -3 72 -5 72 -23z"
       id="path20" />
    <path
       d="M3340 1465 l0 -315 110 0 110 0 0 315 0 315 -110 0 -110 0 0 -315z m190 0 l0 -295 -85 0 -85 0 0 295 0 295 85 0 85 0 0 -295z"
       id="path22" />
    <path
       d="M575 957 c-106 -36 -206 -121 -247 -212 -33 -75 -32 -200 3 -275 45 -96 137 -174 241 -205 46 -13 111 -15 423 -13 l370 3 9 37 10 38 72 0 72 0 9 -37 9 -38 299 0 300 0 5 67 5 67 49 -70 c27 -38 55 -69 62 -69 7 0 35 30 61 67 l48 68 5 -65 5 -65 505 0 505 0 0 130 0 130 -82 3 -83 3 0 94 0 94 83 3 82 3 0 125 0 125 -500 3 -501 2 -63 -91 c-35 -50 -66 -87 -71 -82 -4 4 -33 45 -65 91 l-57 83 -147 -3 -146 -3 -5 -292 -5 -292 -74 282 c-41 155 -78 288 -84 295 -14 17 -430 17 -444 0 -5 -7 -43 -141 -84 -298 l-74 -285 -5 130 -5 130 -150 0 -150 0 -3 -57 -3 -58 -45 0 c-51 0 -98 21 -114 49 -18 34 -12 80 14 106 38 38 72 42 123 15 l44 -24 92 92 c108 108 108 108 -6 166 -70 36 -86 40 -165 43 -53 2 -102 -2 -127 -10z m260 -41 c31 -14 67 -34 80 -44 l24 -19 -79 -78 -79 -79 -36 17 c-20 9 -48 17 -63 17 -41 0 -91 -36 -108 -77 -13 -31 -14 -41 -2 -72 21 -55 68 -81 144 -81 l64 0 0 60 0 60 135 0 135 0 0 -176 0 -176 -227 4 c-227 3 -228 3 -290 32 -65 30 -147 105 -177 164 -43 83 -39 215 9 298 45 78 144 151 232 174 64 16 176 5 238 -24z m916 -306 c49 -184 89 -336 89 -338 0 -1 -62 -1 -137 0 l-138 3 -9 38 -10 38 -90 -3 -91 -3 -9 -37 -10 -38 -139 0 c-111 0 -138 3 -134 13 3 7 37 137 77 288 39 151 78 298 86 327 l16 52 205 -2 206 -3 88 -335z m443 240 c39 -55 73 -97 78 -92 4 4 36 48 71 97 l63 90 132 3 132 3 0 -341 0 -340 -130 0 -130 0 0 90 c0 50 -4 90 -9 90 -4 0 -37 -40 -71 -89 l-63 -90 -69 96 -68 97 0 -97 0 -97 -135 0 -135 0 0 340 0 340 133 0 132 0 69 -100z m1176 -10 l0 -110 -205 0 c-130 0 -205 -4 -205 -10 0 -6 48 -10 125 -10 l125 0 0 -95 0 -95 -125 0 c-77 0 -125 -4 -125 -10 0 -6 75 -10 205 -10 l205 0 0 -115 0 -115 -340 0 -340 0 0 340 0 340 340 0 340 0 0 -110z"
       id="path24" />
    <path
       d="M581 906 c-60 -20 -144 -79 -175 -124 -41 -61 -56 -107 -56 -179 0 -121 68 -221 188 -280 56 -28 60 -28 270 -31 l212 -3 0 150 0 151 -110 0 -110 0 0 -61 0 -61 -83 3 c-73 4 -88 8 -120 32 -69 52 -74 149 -12 212 43 42 94 54 151 33 l40 -14 65 58 c71 65 71 62 -10 100 -58 27 -188 34 -250 14z m213 -26 c36 -12 66 -24 66 -28 0 -4 -19 -27 -43 -50 -41 -40 -45 -42 -76 -31 -73 26 -171 -12 -206 -81 -23 -44 -19 -121 8 -160 44 -65 67 -75 180 -75 l102 0 3 58 3 57 84 0 85 0 0 -131 0 -131 -197 4 c-226 3 -253 11 -338 89 -71 65 -90 108 -90 204 0 95 19 139 88 202 98 90 201 113 331 73z"
       id="path26" />
    <path
       d="M1265 908 c-2 -7 -38 -141 -80 -298 -41 -157 -78 -293 -81 -302 -5 -16 5 -18 109 -18 l115 0 11 45 11 46 108 -3 107 -3 9 -42 9 -43 114 0 113 0 -6 28 c-4 15 -42 155 -83 312 l-76 285 -188 3 c-145 2 -188 0 -192 -10z m434 -285 c41 -153 76 -286 78 -296 5 -15 -4 -17 -84 -17 l-90 0 -9 43 -9 42 -119 3 c-73 2 -123 -1 -131 -8 -7 -6 -16 -26 -19 -45 l-7 -35 -90 0 c-81 0 -90 2 -85 18 3 9 37 139 77 287 39 149 73 273 76 278 2 4 79 7 171 7 l168 0 73 -277z"
       id="path28" />
    <path
       d="M1431 788 c-21 -57 -64 -256 -58 -271 5 -14 21 -17 87 -17 55 0 82 4 85 13 3 6 -12 75 -32 152 -29 107 -42 141 -55 143 -11 2 -21 -5 -27 -20z m58 -125 c17 -67 31 -127 31 -132 0 -12 -130 -16 -130 -3 0 10 64 261 67 259 1 -1 15 -57 32 -124z"
       id="path30" />
    <path
       d="M1441 643 c-6 -22 -14 -53 -17 -71 -6 -32 -6 -32 34 -32 l41 0 -19 66 c-11 37 -21 69 -24 71 -3 3 -9 -13 -15 -34z m22 -63 c3 -11 1 -20 -4 -20 -5 0 -9 9 -9 20 0 11 2 20 4 20 2 0 6 -9 9 -20z"
       id="path32" />
    <path
       d="M1890 605 l0 -315 110 0 110 0 0 121 0 122 79 -112 78 -111 79 113 79 112 3 -122 3 -123 109 0 110 0 0 315 0 315 -114 0 -115 0 -77 -105 c-42 -58 -77 -105 -78 -105 -1 0 -35 47 -76 105 l-75 105 -112 0 -113 0 0 -315z m285 190 c42 -58 83 -105 91 -105 8 0 49 47 92 105 l77 105 97 0 98 0 0 -295 0 -295 -90 0 -89 0 -3 118 c-3 109 -4 117 -23 117 -14 0 -41 -30 -89 -97 l-69 -97 -69 97 c-52 72 -75 97 -91 97 -21 0 -22 -4 -25 -117 l-3 -118 -84 0 -85 0 0 295 0 295 94 0 95 0 76 -105z"
       id="path34" />
    <path
       d="M2720 605 l0 -315 315 0 315 0 0 90 0 90 -205 0 -205 0 0 40 0 40 125 0 125 0 0 70 0 70 -125 0 -125 0 0 35 0 35 205 0 205 0 0 80 0 80 -315 0 -315 0 0 -315z m610 235 l0 -60 -207 -2 -208 -3 0 -50 0 -50 123 -3 122 -3 0 -49 0 -49 -122 -3 -123 -3 0 -55 0 -55 208 -3 207 -2 0 -70 0 -70 -295 0 -295 0 0 295 0 295 295 0 295 0 0 -60z"
       id="path36" />
  </g>
  <path
     style="fill:#ffe81f;fill-opacity:1;stroke-width:0.555302"
     d="m 441.41616,60.109034 v -44.97944 h 17.76966 17.76966 v 44.97944 44.979436 h -17.76966 -17.76966 z m 33.31811,0.555302 V 18.461404 h -14.7155 -14.71549 v 42.202932 42.202934 h 14.71549 14.7155 z"
     id="path875"
     transform="scale(0.75)" />
  <path
     style="fill:#ffe81f;fill-opacity:1;stroke-width:0.555302"
     d="M 341.46185,60.068335 V 15.048197 l 34.56754,0.23956 c 25.02172,0.173406 35.33426,0.430599 37.34404,0.931356 10.66625,2.65761 19.95672,11.93643 23.09505,23.066106 1.19739,4.246378 0.98034,12.020779 -0.46581,16.684522 -2.27835,7.347524 -9.6687,15.785264 -16.61267,18.967077 -5.45608,2.500046 -9.43101,3.001561 -26.42391,3.333876 l -15.96493,0.312213 V 91.835688 105.08847 H 359.23151 341.46185 Z M 374.77996,89.06742 V 75.267572 l 17.63083,-0.335169 c 23.21108,-0.441254 25.8996,-1.103201 33.76937,-8.314418 2.76894,-2.53723 4.09368,-4.333114 5.93009,-8.03913 l 2.36464,-4.772061 v -7.011936 c 0,-6.961368 -0.0148,-7.041794 -2.04617,-11.152079 -2.54048,-5.140315 -6.88767,-10.008531 -12.24373,-13.711169 l -4.10321,-2.836545 -35.64406,-0.402345 -35.64406,-0.402346 v 42.288447 42.288449 h 14.99315 14.99315 z"
     id="path877"
     transform="scale(0.75)" />
  <path
     style="fill:#ffe81f;fill-opacity:1;stroke-width:0.138825"
     d="m 245.09897,105.16581 c -5.55875,-0.14231 -8.11708,-0.47757 -8.50955,-1.11516 -0.0961,-0.15613 0.20349,-1.45714 1.055,-4.581238 1.61,-5.906898 8.20145,-30.821084 10.94013,-41.351175 6.25781,-24.060969 9.24778,-35.25231 10.64303,-39.836432 l 1.07277,-3.524601 12.0084,0.09548 c 6.60462,0.05251 17.91195,0.185428 25.12741,0.295365 7.21545,0.109937 14.11854,0.200815 15.34021,0.20195 l 2.2212,0.0021 3.17792,12.112 c 4.9673,18.931937 9.5883,36.467161 13.4537,51.052534 4.25536,16.056839 6.89929,26.160587 6.89929,26.365497 0,0.22977 -15.30202,0.19019 -26.72389,-0.0691 -5.34478,-0.12135 -9.72145,-0.23098 -9.72594,-0.24362 -0.004,-0.0126 -0.55769,-2.24072 -1.22936,-4.951291 -0.67167,-2.710566 -1.26831,-4.978868 -1.32588,-5.040671 -0.0974,-0.104573 -21.54039,0.519448 -23.40954,0.68125 l -0.84553,0.07319 -1.06584,4.260203 c -0.58621,2.343109 -1.1631,4.588169 -1.28199,4.989029 l -0.21617,0.72884 -11.89384,-0.0232 c -6.54161,-0.0128 -13.6118,-0.0672 -15.71153,-0.12092 z m 26.43356,-6.831883 c 0.579,-2.386062 1.22854,-5.070888 1.44342,-5.96628 0.21489,-0.895391 0.42311,-1.660396 0.46273,-1.700012 0.0746,-0.07462 24.26599,0.554155 27.00305,0.701855 1.54235,0.08323 1.54813,0.08486 1.60825,0.452469 0.19039,1.16415 2.23732,10.659491 2.3167,10.746761 0.0524,0.0576 6.90504,0.0888 15.22809,0.0694 l 15.13282,-0.0353 -0.4519,-2.08238 c -0.24854,-1.145312 -1.17735,-4.768656 -2.06401,-8.051878 -2.06456,-7.644868 -3.97567,-14.822141 -6.74618,-25.335641 -4.4236,-16.786648 -12.66842,-47.688793 -12.74719,-47.777325 -0.16268,-0.182848 -29.72232,-0.565886 -37.98011,-0.492152 -7.76075,0.0693 -9.59012,0.155824 -11.24486,0.531868 -1.23666,0.281035 -1.41595,0.434687 -1.72069,1.474654 -0.56883,1.9412 -9.58873,35.601303 -12.22968,45.63824 -3.27255,12.437332 -8.17384,30.65223 -9.02106,33.525424 -0.0787,0.26674 -0.14301,0.72057 -0.14301,1.00853 0,0.44099 0.0706,0.56648 0.44767,0.79579 1.19907,0.7292 2.48848,0.79046 17.13635,0.81409 l 12.51689,0.0202 z"
     id="path879"
     transform="scale(0.75)" />
  <path
     style="fill:#ffe81f;fill-opacity:1;stroke-width:0.555302"
     d="m 133.3048,103.84403 c -0.1509,-0.68718 -2.41452,-9.245771 -5.03027,-19.019082 -12.00015,-44.836532 -18.17845,-68.733991 -17.85411,-69.059125 0.194,-0.194475 7.65196,-0.429637 16.57323,-0.522581 16.06206,-0.167339 19.00984,0.08845 19.44962,1.687735 0.10624,0.386354 0.60589,2.576605 1.11033,4.867225 1.50693,6.842789 4.92069,18.880258 5.35434,18.880258 0.35214,0 4.86229,-15.458158 6.68322,-22.906196 l 0.64487,-2.637683 18.39786,0.0082 c 13.49253,0.006 18.75574,0.191075 19.74013,0.694127 1.05642,0.539862 1.49577,1.441285 2.06305,4.232782 1.06606,5.245923 5.40371,20.608784 5.81882,20.608784 0.30349,0 4.43313,-14.105262 6.70632,-22.906196 l 0.68128,-2.637683 h 17.03119 c 13.27659,0 17.16296,0.158775 17.62892,0.72022 0.44098,0.531354 -2.08734,10.979469 -9.64153,39.842899 -5.6316,21.517471 -10.82765,41.371652 -11.54679,44.120395 l -1.30754,4.997711 -19.45372,0.14585 -19.45372,0.14585 -0.35872,-1.81175 c -0.95968,-4.846979 -6.69073,-24.276754 -7.04944,-23.899432 -0.52039,0.5474 -5.3492,17.994936 -5.82288,21.039322 -0.19541,1.2559 -0.54832,2.59579 -0.78425,2.97753 -0.80344,1.29999 -5.27162,1.6319 -22.29505,1.6561 l -17.01079,0.0242 z m 37.35012,-1.1711 c 0,-0.72808 7.9222,-30.157427 8.49818,-31.569004 0.6969,-1.707912 0.80219,-1.451073 3.5899,8.757263 1.57957,5.784229 3.55765,13.165116 4.39574,16.40197 l 1.5238,5.885191 11.12587,0.3605 c 6.11924,0.19827 14.05241,0.36114 17.62928,0.36194 l 6.50338,0.002 0.54473,-2.08238 c 0.29961,-1.145311 4.4155,-16.825644 9.14643,-34.845185 9.42926,-35.915115 12.00842,-45.88471 12.00842,-46.418078 0,-0.763031 -9.12476,-1.110839 -19.44727,-0.741271 l -10.8601,0.388815 -2.41051,9.092741 c -1.32578,5.001008 -3.34263,12.40076 -4.48188,16.443893 l -2.07137,7.351151 -0.93404,-3.05416 c -0.75719,-2.475923 -5.10434,-18.728251 -7.61221,-28.459213 l -0.53668,-2.082382 h -6.83057 c -3.75681,0 -11.69484,0.162909 -17.64005,0.362021 l -10.80948,0.36202 -2.35296,8.661633 c -4.07705,15.00826 -6.32199,22.25233 -6.80375,21.954587 -0.67195,-0.415293 -2.59769,-7.178006 -8.3314,-29.257879 l -0.54075,-2.082382 h -15.58646 c -12.23734,0 -15.53071,0.14915 -15.32701,0.694127 0.1427,0.38177 5.22017,19.24144 11.28326,41.910378 l 11.02382,41.216244 7.51758,0.17076 c 13.56623,0.30814 27.7861,0.41818 27.7861,0.21503 z"
     id="path883"
     transform="scale(0.75)" />
  <path
     style="fill:#ffe81f;fill-opacity:1;stroke-width:0.555302"
     d="M 15.170431,90.246848 V 75.279345 l 7.584373,-0.363739 c 4.171405,-0.200059 12.02237,-0.36374 17.446588,-0.36374 5.424218,0 10.242541,-0.145944 10.707384,-0.324324 C 51.48634,74.00591 49.346865,72.102008 44.151746,68.214516 31.221078,58.538529 27.765656,53.836576 27.04067,44.930685 26.378811,36.800242 29.481949,29.073084 35.73272,23.286516 43.727397,15.885552 45.111269,15.627436 78.613654,15.2885 l 26.515656,-0.268253 v 14.135056 14.135055 l -4.58124,0.356628 c -2.519679,0.196146 -9.578952,0.385247 -15.687271,0.420226 -6.108319,0.03498 -12.592672,0.22389 -14.409669,0.419804 l -3.303634,0.356207 8.590323,6.723907 c 4.724679,3.698148 9.839352,8.090542 11.365943,9.760875 5.690616,6.226436 8.075615,13.234756 6.957131,20.443528 -1.088313,7.01436 -4.493085,12.405057 -10.739263,17.003233 -7.56171,5.566614 -9.173912,5.804924 -41.635541,6.154244 l -26.515658,0.28534 z m 57.831333,11.352182 c 5.22736,-1.22606 8.032373,-2.823625 11.932645,-6.796087 8.441997,-8.598253 9.425803,-17.985884 2.936997,-28.025327 -3.085245,-4.773473 -6.466939,-8.234561 -13.838991,-14.163879 -8.245821,-6.632089 -8.676264,-7.116541 -8.009005,-9.013881 0.903899,-2.570225 3.666101,-3.003979 21.197421,-3.328671 L 102.9081,39.980646 V 29.223518 18.466391 l -22.628541,0.0046 c -26.682045,0.0054 -30.993575,0.363318 -36.666757,3.044075 -10.026759,4.737961 -15.683949,15.246114 -14.011396,26.025979 1.11876,7.21058 3.734766,10.439216 15.802619,19.503356 3.43739,2.581817 6.573891,5.084719 6.970003,5.562006 1.00959,1.216477 -0.08899,3.457931 -2.073937,4.231488 -1.658268,0.646249 -16.181483,1.531617 -25.828356,1.574558 l -5.969494,0.02657 v 12.268393 12.268394 l 25.405055,-0.2557 c 20.367376,-0.20499 26.136642,-0.42729 29.094468,-1.12103 z"
     id="path885"
     transform="scale(0.75)" />
  <path
     style="fill:#ffe81f;fill-opacity:1;stroke-width:0.555302"
     d="m 280.18818,71.383463 c -0.68718,-0.132358 -1.24943,-0.392791 -1.24943,-0.578741 0,-0.554029 8.3582,-33.116543 8.54952,-33.30786 0.0968,-0.09678 2.00024,7.203883 4.22993,16.223685 2.22968,9.019802 3.89219,16.56142 3.69446,16.759151 -0.9775,0.977498 -11.57536,1.606616 -15.22448,0.903765 z m 13.18842,-2.290559 c 0,-0.652814 -4.31896,-15.050178 -5.06729,-16.891933 -0.34125,-0.839893 -0.81966,-1.527079 -1.06312,-1.527079 -0.52986,0 -2.40004,5.534246 -3.56541,10.550733 -0.88679,3.817341 -1.10147,7.342564 -0.48471,7.959324 0.54025,0.540254 10.18053,0.454041 10.18053,-0.09104 z"
     id="path887"
     transform="scale(0.75)" />
  <path
     style="fill:#ffe81f;fill-opacity:1;stroke-width:0.555302"
     d="m 375.00595,45.948771 v -8.772872 l 10.96721,0.39011 c 12.48781,0.444199 14.95614,0.900282 17.1252,3.164291 2.09389,2.185548 2.51662,7.106154 0.83983,9.775554 -1.76813,2.814811 -5.06521,3.530753 -17.96503,3.901007 l -10.96721,0.314783 z m 21.88274,5.847437 c 4.68203,-0.766733 5.97931,-2.1262 5.76767,-6.044147 -0.13492,-2.497732 -0.41069,-3.201332 -1.60237,-4.088241 -1.8628,-1.386398 -7.16078,-2.054809 -16.46908,-2.077794 l -7.35775,-0.01817 v 6.38597 6.38597 l 8.1907,-0.0032 c 4.50489,-0.0018 9.66676,-0.244936 11.47083,-0.540372 z"
     id="path891"
     transform="scale(0.75)" />
  <path
     style="fill:#ffe81f;fill-opacity:1;stroke-width:0.555302"
     d="m 358.9022,174.50618 v -44.97944 h 44.97944 44.97945 v 14.37339 14.37339 l -25.96036,0.28299 c -24.45983,0.26663 -28.45921,0.47908 -28.45921,1.51182 0,0.92944 3.11055,1.19012 17.90848,1.50081 l 15.40962,0.32354 v 12.04862 12.04862 l -14.95664,0.37303 c -14.81668,0.36954 -18.36146,0.65535 -18.36146,1.48047 0,1.12195 3.77045,1.32723 28.18156,1.53434 l 26.23801,0.22261 v 14.94262 14.94263 H 403.88164 358.9022 Z m 88.16478,30.95807 -0.14945,-12.35546 -27.34861,-0.14406 -27.34861,-0.14406 v -4.99248 -4.99249 h 16.65905 16.65905 v -9.44013 -9.44012 h -16.65905 -16.65905 v -4.44242 -4.44241 h 27.48743 27.48744 V 143.96458 132.85855 H 404.7146 362.23401 v 42.48058 42.48058 h 42.49121 42.49121 z"
     id="path893"
     transform="scale(0.75)" />
  <path
     style="fill:#ffe81f;fill-opacity:1;stroke-width:0.555302"
     d="m 248.39716,174.50618 v -44.97944 l 17.35318,0.001 17.35318,0.001 1.94355,2.88137 c 9.08914,13.47484 16.18139,22.66037 17.49634,22.66037 0.74328,0 5.943,-6.83697 14.30608,-18.81067 l 4.31499,-6.17791 h 6.28527 c 3.45691,0 11.19824,-0.16454 17.20296,-0.36564 l 10.91768,-0.36565 v 45.06744 45.06743 h -16.9367 -16.9367 l -0.0469,-8.46835 c -0.0484,-8.73984 -0.5259,-14.50158 -1.26299,-15.23868 -0.6083,-0.60828 -3.30877,2.70809 -11.03647,13.5536 -3.74638,5.25788 -6.94914,9.56841 -7.11726,9.57896 -0.16812,0.0105 -4.29123,-5.60972 -9.16248,-12.48946 l -8.8568,-12.50862 -0.14906,12.78627 -0.14906,12.78628 h -17.75942 -17.75942 z m 33.44828,27.62626 0.14747,-15.68727 9.99544,14.27645 c 5.49748,7.85205 10.12037,14.27748 10.27308,14.27873 0.15271,0.001 4.90054,-6.62233 10.55073,-14.71909 l 10.27308,-14.72137 0.34238,12.93693 c 0.18831,7.11531 0.37572,14.37377 0.41648,16.12991 l 0.0741,3.19298 h 14.71549 14.7155 v -42.48058 -42.48058 l -15.40963,0.0301 -15.40962,0.0301 -8.88483,12.23072 c -4.88665,6.7269 -9.51223,12.98417 -10.27907,13.90506 l -1.39424,1.67433 -9.9459,-13.93516 -9.9459,-13.93516 h -15.17552 -15.17551 v 42.48058 42.48058 h 14.9845 14.9845 z"
     id="path897"
     transform="scale(0.75)" />
  <path
     style="fill:#ffe81f;fill-opacity:1;stroke-width:0.555302"
     d="m 144.41691,219.10283 c -0.53448,-0.13967 -0.97178,-0.36519 -0.97178,-0.50115 0,-0.13596 2.10618,-8.17645 4.68041,-17.86776 2.57422,-9.69131 6.9636,-26.36657 9.75417,-37.05613 6.20066,-23.75226 8.82359,-33.17986 9.39236,-33.75897 0.23815,-0.24247 12.53358,-0.26592 27.32318,-0.0521 l 26.89018,0.38876 9.08241,34.48082 c 4.99533,18.96445 10.27932,39.04123 11.7422,44.61507 l 2.65979,10.13426 -14.52891,-0.0649 c -7.99091,-0.0357 -16.12309,-0.22312 -18.07154,-0.41648 l -3.54262,-0.35157 -1.17744,-4.72007 -1.17744,-4.72006 -12.21664,0.20818 c -6.71915,0.1145 -12.28674,0.2679 -12.37243,0.34089 -0.0857,0.073 -0.68854,2.29075 -1.33969,4.92836 l -1.18391,4.79565 -16.98526,-0.0644 c -9.34189,-0.0354 -17.42256,-0.17869 -17.95704,-0.31837 z m 33.08949,-2.25489 c 0.14449,-0.53448 0.8221,-3.31597 1.5058,-6.18108 l 1.24309,-5.20931 13.94125,0.40669 c 7.66768,0.22369 14.08366,0.63567 14.25773,0.91553 0.17407,0.27986 0.76277,2.87833 1.30823,5.77438 l 0.99174,5.26556 h 15.47577 15.47576 l -0.35811,-1.80473 c -0.19696,-0.9926 -5.14236,-19.78872 -10.98977,-41.76917 l -10.63165,-39.96444 -2.18477,-0.45524 c -3.48583,-0.72635 -47.81471,-0.26279 -48.58489,0.50807 -0.35317,0.35348 -5.11622,17.34571 -10.58456,37.76052 -12.35371,46.11977 -11.81839,44.02041 -11.34607,44.49558 0.59015,0.59371 8.21786,1.03018 19.84326,1.13546 9.45669,0.0856 10.39773,0.008 10.63719,-0.87782 z"
     id="path899"
     transform="scale(0.75)" />
  <path
     style="fill:#ffe81f;fill-opacity:1;stroke-width:0.555302"
     d="m 185.95817,185.66472 c -0.32161,-0.52037 6.60361,-28.81638 7.88373,-32.21242 0.40669,-1.0789 1.29328,1.8323 4.54076,14.9099 3.03609,12.22635 3.87767,16.40871 3.39846,16.88912 -0.85005,0.85218 -15.31816,1.23018 -15.82295,0.4134 z m 13.85171,-2.82163 c -0.20035,-0.91218 -1.41125,-5.09777 -2.69089,-9.3013 -2.79803,-9.1913 -3.42168,-9.58671 -5.20842,-3.30218 -1.71627,6.03665 -2.90577,12.01492 -2.56652,12.89899 0.33782,0.88035 1.91665,1.16746 7.03769,1.27981 l 3.79241,0.0832 z"
     id="path901"
     transform="scale(0.75)" />
  <path
     style="fill:#ffe81f;fill-opacity:1;stroke-width:0.555302"
     d="m 105.12931,219.43912 c -24.252285,-0.47669 -26.720737,-0.79652 -33.959038,-4.3999 -10.10341,-5.0297 -20.813289,-15.35103 -24.251219,-23.37139 -4.266799,-9.95404 -3.780001,-25.98364 1.081852,-35.6239 4.477091,-8.87734 12.857252,-16.65372 23.524347,-21.82944 7.327232,-3.55521 11.196594,-4.31116 20.276818,-3.96147 12.55047,0.48333 21.47511,3.68218 32.45847,11.63406 0.34866,0.25242 -3.63498,4.49496 -9.93653,10.5823 l -10.51851,10.16094 -4.474638,-1.96495 c -3.710895,-1.62957 -5.138091,-1.96669 -8.361744,-1.97512 -3.248438,-0.008 -4.312495,0.23989 -6.47608,1.51177 -4.186383,2.46099 -5.850686,4.14695 -7.651891,7.75148 -3.067421,6.13845 -1.792711,12.26058 3.527978,16.94404 3.877961,3.41352 6.50184,4.15773 15.736534,4.46338 l 7.913051,0.26191 v -8.11363 -8.11363 h 17.76965 17.76966 v 23.32268 23.32267 l -6.5248,-0.0908 c -3.58863,-0.0499 -16.14539,-0.27988 -27.90391,-0.51101 z m 31.0969,-21.88792 v -20.26851 h -14.99315 -14.99314 v 8.08532 8.08533 l -6.802451,-0.34443 c -13.51847,-0.68449 -17.715234,-1.94275 -21.889099,-6.56272 -6.773143,-7.49706 -6.500415,-17.66671 0.679637,-25.34276 5.566251,-5.95078 12.356114,-7.33094 20.95986,-4.26048 l 4.331633,1.54585 3.70683,-3.23617 c 7.00266,-6.11354 11.66274,-10.75855 11.96921,-11.93049 0.46337,-1.77192 -2.02071,-3.87127 -7.05256,-5.96028 -6.95297,-2.88659 -11.12694,-3.59375 -21.451513,-3.63434 -7.398136,-0.0291 -9.799491,0.16054 -12.470572,0.98473 -7.007422,2.16223 -14.831393,7.07484 -20.884137,13.11298 -5.500646,5.48737 -8.930908,12.16363 -10.284911,20.01733 -3.307682,19.18574 5.844209,36.09384 24.48171,45.22991 2.748744,1.34743 6.49703,2.75464 8.329526,3.12715 2.894254,0.58833 18.2017,1.05632 49.838327,1.5237 l 6.5248,0.0964 z"
     id="path905"
     transform="scale(0.75)" />
  <path
     style="fill:#ffe81f;fill-opacity:1;stroke-width:0.0981644"
     d="m 385.84795,78.470409 c 13.10225,-0.272578 16.80313,-0.387315 20.51636,-0.636066 6.27772,-0.420546 9.56663,-1.173161 13.49761,-3.088715 7.18207,-3.499802 14.5822,-12.362528 16.43377,-19.681834 0.67484,-2.667615 0.93334,-5.06489 0.93657,-8.685545 0.003,-3.748776 -0.22714,-5.604591 -0.99364,-8.000399 -2.2305,-6.971736 -6.73677,-13.162567 -12.67021,-17.40666 -3.86812,-2.766801 -8.47575,-4.715795 -11.85822,-5.015936 -5.0392,-0.44715 -18.51753,-0.634502 -65.69239,-0.913138 -4.48876,-0.02651 -4.63822,-0.03343 -4.63827,-0.214707 -6e-5,-0.183988 0.45494,-0.186196 25.64539,-0.124465 14.105,0.03457 27.50076,0.10699 29.76836,0.160943 12.21612,0.290659 16.61443,0.809962 20.85255,2.462038 7.37999,2.876821 13.58517,8.83975 17.10601,16.438197 1.35633,2.927131 2.1933,5.789634 2.69804,9.227455 0.24388,1.661044 0.24087,6.047399 -0.005,7.853152 -0.48314,3.542869 -1.23937,6.116683 -2.65346,9.031125 -1.81461,3.739885 -4.35015,7.049189 -7.83545,10.22655 -6.42523,5.857539 -12.24893,7.792094 -25.205,8.37276 -1.21478,0.05444 -6.096,0.09242 -10.84716,0.08439 -7.34065,-0.01241 -8.10017,-0.0258 -5.05547,-0.08914 z"
     id="path907"
     transform="scale(0.75)" />
  <path
     style="fill:#ffe81f;fill-opacity:1;stroke-width:0.0490822"
     d="M 441.45066,35.089657 V 15.162282 h 17.74322 17.74322 v 19.927375 19.927374 h -1.07981 -1.07981 V 36.733911 18.45079 h -14.7492 -14.7492 v 18.283121 18.28312 h -1.91421 -1.91421 z"
     id="path909"
     transform="scale(0.75)" />
  <path
     style="fill:#ffe81f;fill-opacity:1;stroke-width:0.0490822"
     d="M 441.36471,34.856516 441.3525,14.67146 h 17.98863 17.98863 v 20.172786 20.172785 h -0.17179 -0.17179 V 35.065116 15.1132 H 459.19394 441.4017 l -0.0124,19.964186 -0.0124,19.964186 z"
     id="path911"
     transform="scale(0.75)" />
  <path
     style="fill:#ffe81f;fill-opacity:1;stroke-width:0.0490822"
     d="M 474.67932,36.832075 V 18.647119 h -14.67558 c -13.01224,0 -14.67558,-0.0083 -14.67558,-0.07362 0,-0.06528 1.66607,-0.07362 14.70012,-0.07362 h 14.70012 v 18.25858 c 0,10.042218 -0.0111,18.258579 -0.0245,18.258579 -0.0135,0 -0.0245,-8.18323 -0.0245,-18.184956 z"
     id="path913"
     transform="scale(0.75)" />
  <path
     style="fill:#ffe81f;fill-opacity:1;stroke-width:0.0245411"
     d="m 433.06758,37.505977 c -0.63767,-1.701057 -1.69235,-3.786068 -2.48585,-4.914356 -2.00824,-2.85551 -5.19166,-6.272332 -7.8332,-8.407509 -0.60306,-0.487459 -1.16582,-0.876457 -4.06275,-2.808287 l -3.08112,-2.054653 -12.29388,-0.137747 c -6.76164,-0.07576 -12.69974,-0.144899 -13.19577,-0.15364 l -0.90189,-0.01589 V 18.90528 18.796667 l 1.00005,0.0149 c 1.35368,0.02017 3.09924,0.03992 15.31978,0.173346 l 10.51586,0.114816 0.33131,0.222754 c 0.68828,0.462771 4.17922,2.88565 4.626,3.210667 2.54158,1.84893 4.89014,4.011595 6.87218,6.328228 1.57629,1.842387 2.90692,3.75612 3.99288,5.742614 0.38445,0.703253 1.53206,3.039727 1.60015,3.257832 0.0164,0.05261 0.0109,0.05522 -0.1162,0.05522 h -0.13345 z"
     id="path915"
     transform="scale(0.75)" />
  <path
     style="fill:#ffe81f;fill-opacity:1;stroke-width:0.0981644"
     d="m 128.42616,86.777989 c -1.67663,-6.323827 -4.18729,-15.893755 -6.21301,-23.682162 -3.86774,-14.870602 -11.24019,-42.663863 -12.14725,-45.793696 -0.41777,-1.44155 -0.39275,-1.516835 0.60116,-1.809001 1.39457,-0.409943 3.24437,-0.557974 8.80974,-0.705001 4.75229,-0.125547 19.05351,-0.05679 21.59617,0.103836 3.48851,0.220373 4.96727,0.559447 5.41413,1.241442 0.0909,0.138674 0.22247,0.657151 0.29247,1.15217 0.18444,1.304296 0.15227,1.418091 -0.10594,0.374752 -0.12495,-0.504866 -0.31207,-1.034954 -0.41583,-1.177973 -0.47045,-0.648468 -1.95183,-1.001813 -4.96726,-1.184815 -4.43509,-0.269158 -27.32615,-0.0072 -30.37858,0.347591 -0.49299,0.05731 -0.51537,0.07261 -0.51537,0.352387 0,1.087431 4.01818,16.865006 11.05733,43.417142 2.18198,8.230563 7.54315,28.354251 7.78678,29.228452 0.17052,0.611879 0.17206,0.66261 0.0202,0.66261 -0.1323,0 -0.29575,-0.494985 -0.83469,-2.527734 z"
     id="path917"
     transform="scale(0.75)" />
  <path
     style="fill:#ffe81f;fill-opacity:1;stroke-width:0.0981644"
     d="m 205.42749,38.429951 c -0.004,-0.04163 -0.29108,-1.013458 -0.63736,-2.159617 -1.43351,-4.744724 -3.51727,-12.568781 -4.22823,-15.876024 -0.78752,-3.663406 -1.31028,-4.520503 -2.92628,-4.797841 -2.17455,-0.373197 -8.3921,-0.500462 -24.51985,-0.501892 l -12.91649,-0.0011 -0.60323,2.429569 c -1.39501,5.618522 -5.09717,18.804266 -5.19624,18.507066 -0.0175,-0.05254 0.23146,-1.018944 0.55327,-2.147565 1.38795,-4.867672 3.30483,-11.828222 4.13356,-15.00974 0.49222,-1.889665 0.93814,-3.601407 0.99091,-3.803871 l 0.096,-0.368116 13.51837,0.0021 c 24.18329,0.0038 26.14046,0.162095 26.37152,2.133439 0.32049,2.734225 1.85982,8.962298 4.32084,17.48188 0.62918,2.17811 1.12305,4.01133 1.09748,4.073823 -0.0256,0.06249 -0.05,0.07956 -0.0542,0.03793 z"
     id="path919"
     transform="scale(0.75)" />
  <path
     style="fill:#ffe81f;fill-opacity:1;stroke-width:0.0490822"
     d="m 27.715561,50.926101 c -0.07644,-0.201053 -0.328592,-1.176134 -0.436618,-1.688422 -0.691213,-3.277917 -0.776673,-7.564878 -0.219171,-10.994413 1.032451,-6.351233 4.225364,-11.983149 9.101278,-16.053562 2.000028,-1.669623 4.209579,-3.189949 5.8393,-4.017847 3.498597,-1.777287 7.5959,-2.577328 15.215483,-2.970981 4.977333,-0.257146 10.579253,-0.338123 28.860335,-0.417182 6.222396,-0.02691 13.096972,-0.06289 15.276832,-0.07995 l 3.96339,-0.03102 V 29.25032 43.827917 l -0.94483,0.03158 c -0.51966,0.01737 -4.644404,0.107695 -9.166102,0.20072 -4.521698,0.09303 -9.270401,0.192016 -10.552674,0.21998 -11.463294,0.249984 -14.736104,0.306535 -14.265071,0.246488 1.32687,-0.16915 5.492663,-0.314048 11.274822,-0.392171 14.637633,-0.197771 15.756368,-0.230807 20.880715,-0.616608 1.26877,-0.09552 2.37864,-0.184915 2.46638,-0.198649 l 0.15952,-0.02497 V 29.142576 14.990867 l -1.31295,0.02053 c -0.72213,0.01129 -7.93905,0.08562 -16.037614,0.165185 -17.748664,0.174362 -20.99602,0.217765 -25.743615,0.34408 -14.230597,0.378619 -18.581104,1.303657 -23.132305,4.91857 -1.232492,0.978939 -3.194038,2.754732 -4.356329,3.943796 -4.017828,4.110377 -6.578015,9.196918 -7.383837,14.670092 -0.436893,2.967398 -0.318446,6.462094 0.321899,9.497406 0.116401,0.551756 0.388181,1.588587 0.556443,2.122806 l 0.119809,0.380387 h -0.218284 c -0.189917,0 -0.224591,-0.01659 -0.266806,-0.12762 z"
     id="path921"
     transform="scale(0.75)" />
</svg>
